<svg width="31" height="31" fill="none" xmlns="http://www.w3.org/2000/svg"><path d="M21.99 22.115a.79.79 0 0 1-.789-.79V9.48a5.133 5.133 0 0 0-10.266 0V23.3a3.554 3.554 0 0 0 7.108 0l.001-2.368-.002-10.662a1.974 1.974 0 1 0-3.948 0v10.66a.79.79 0 0 1-1.58 0V10.27a3.554 3.554 0 0 1 7.108 0V23.3a5.134 5.134 0 0 1-10.265.001V9.48a6.712 6.712 0 0 1 13.424 0v11.845a.79.79 0 0 1-.79.79z" fill="#D7A900"/><path d="M15.74 28.283a5.14 5.14 0 0 1-6.381-4.98l-.003-1.975V10.272l.003-.79a6.724 6.724 0 0 1 6.384-6.706v1.585a5.135 5.135 0 0 0-4.805 5.121l-.002.79v11.056l.002 1.975a3.552 3.552 0 0 0 3.553 3.553c.427 0 .85-.077 1.25-.23v1.657z" fill="#D7A900"/><path d="M13.305 21.724a.795.795 0 0 1-.79-.79V10.272a3.563 3.563 0 0 1 3.228-3.539l-.002 1.593a1.977 1.977 0 0 0-1.646 1.946v10.662a.788.788 0 0 1-.79.79z" fill="#D7A900"/></svg>