<svg width="39" height="44" fill="none" xmlns="http://www.w3.org/2000/svg">
  <rect width="33" height="44" rx="2" fill="#1A426D"/>
  <rect x="4" y="4" width="24" height="2" rx="1" fill="#6FCF97"/>
  <rect x="4" y="10" width="24" height="2" rx="1" fill="#6FCF97"/>
  <rect x="4" y="16" width="24" height="2" rx="1" fill="#6FCF97"/>
  <rect x="4" y="22" width="17" height="2" rx="1" fill="#6FCF97"/>
  <circle cx="30.5" cy="32.5" r="8.5" fill="#D7A900"/>
  <path d="M33.382 35.44a.373.373 0 0 1-.373-.372v-5.591a2.423 2.423 0 0 0-4.846 0V36a1.677 1.677 0 0 0 3.355 0V29.849a.932.932 0 0 0-1.864 0v5.032a.373.373 0 1 1-.745 0V29.85a1.677 1.677 0 0 1 3.354 0V36a2.423 2.423 0 0 1-4.845 0V29.477a3.168 3.168 0 0 1 6.336 0v5.59a.373.373 0 0 1-.372.373z" fill="#fff"/>
  <path d="M30.43 38.35A2.426 2.426 0 0 1 27.418 36l-.002-.933v-5.219l.002-.372a3.174 3.174 0 0 1 3.013-3.166v.749a2.424 2.424 0 0 0-2.268 2.417l-.001.372v5.22l.001.932a1.677 1.677 0 0 0 2.267 1.568v.782z" fill="#fff"/>
  <path d="M29.28 35.254a.375.375 0 0 1-.373-.373v-5.033a1.682 1.682 0 0 1 1.524-1.67l-.001.752a.933.933 0 0 0-.777.918v5.033a.372.372 0 0 1-.373.373z" fill="#fff"/>
</svg>
