<svg width="109" height="15" viewBox="0 0 109 15" fill="none" xmlns="http://www.w3.org/2000/svg">
<path d="M0.259766 14.6129H9.49706V12.4885H2.6497V8.69493H5.65293V6.68435H2.6497V3.27016H9.15564V1.1837H0.259766V14.6129Z" fill="white"/>
<path d="M11.1919 14.6129H14.075L17.2236 9.33983L20.505 14.6129H23.5209L18.7031 7.49996L22.8001 1.1837H20.0498L17.3184 5.7739L14.5491 1.1837H11.666L15.839 7.44306L11.1919 14.6129Z" fill="white"/>
<path d="M36.8706 2.8908C35.8084 1.48719 33.7409 0.842285 31.9959 0.842285C27.8609 0.842285 24.7123 3.55467 24.7123 7.86035C24.7123 12.0522 27.6902 14.9543 31.8821 14.9543C34.1582 14.9543 35.9033 14.0818 37.0793 12.6023L35.1635 11.2556C34.4807 12.185 33.3426 12.8109 31.9011 12.8109C29.1318 12.8109 27.3488 10.7814 27.3488 7.86035C27.3488 5.09106 29.2266 2.9477 31.9959 2.9477C33.0771 2.9477 34.3479 3.36499 35.0497 4.33235L36.8706 2.8908Z" fill="white"/>
<path d="M39.3229 14.6129H41.7129V8.657H47.9912V14.6129H50.3811V1.1837H47.9912V6.60848H41.7129V1.1837H39.3229V14.6129Z" fill="white"/>
<path d="M52.4725 14.6129H55.1469L56.3609 11.5401H62.184L63.4358 14.6129H66.1672L60.382 1.1837H58.3145L52.4725 14.6129ZM57.1765 9.49158L59.2819 4.02887L61.3494 9.49158H57.1765Z" fill="white"/>
<path d="M68.2547 14.6129H70.6446V4.23751H70.6826L77.0557 14.6129H80.0906V1.1837H77.7006V11.2366H77.6627L71.4223 1.1837H68.2547V14.6129Z" fill="white"/>
<path d="M95.5734 6.9499H90.4332V8.92254H93.2594V12.3367C92.4817 12.6592 91.5902 12.8109 90.5849 12.8109C87.6259 12.8109 85.805 10.7245 85.805 7.86035C85.805 5.09106 87.6449 2.9477 90.4711 2.9477C91.9127 2.9477 93.2214 3.55467 93.9043 4.31338L95.5545 2.53041C94.4733 1.52512 92.5765 0.842285 90.4521 0.842285C86.3172 0.842285 83.1685 3.55467 83.1685 7.86035C83.1685 12.0522 86.1844 14.9543 90.509 14.9543C92.6145 14.9543 94.2267 14.556 95.5734 13.9111V6.9499Z" fill="white"/>
<path d="M99.2425 14.6129H108.48V12.4885H101.632V8.69493H104.636V6.68435H101.632V3.27016H108.138V1.1837H99.2425V14.6129Z" fill="white"/>
</svg>
