<svg width="64" height="64" fill="none" xmlns="http://www.w3.org/2000/svg">
  <circle opacity=".15" cx="32" cy="32" r="32" fill="#6FCF97"/>
  <path fill-rule="evenodd" clip-rule="evenodd" d="M52.081 25.824C52.081 19.846 47.235 15 41.257 15c-3.903 0-7.312 2.073-9.217 5.171C30.136 17.073 26.726 15 22.823 15 16.845 15 12 19.846 12 25.824c0 3.254 1.442 6.166 3.715 8.149L31.053 49.31a1.397 1.397 0 0 0 1.975 0l15.338-15.338a10.784 10.784 0 0 0 3.715-8.15zM30.4 26.1a1.1 1.1 0 0 1 2.2 0v3.3h3.3a1.1 1.1 0 0 1 0 2.2h-3.3v3.3a1.1 1.1 0 0 1-2.2 0v-3.3h-3.3a1.1 1.1 0 0 1 0-2.2h3.3v-3.3z" fill="#1A426D"/>
  <circle cx="8.6" cy="52.6" r="2.6" fill="#D7A900"/>
  <circle cx="58.4" cy="13.6" r="2.6" fill="#D7A900"/>
</svg>
