<svg width="99" height="24" fill="none" xmlns="http://www.w3.org/2000/svg">
  <path fill-rule="evenodd" clip-rule="evenodd" d="M48.96 0H27.784v5.647h1.412V3.294h18.353v2.353h1.411V0zM27.784 24H48.96v-5.647H47.55v2.353H29.196v-2.353h-1.412V24z" fill="#D7A900"/>
  <path d="M0 15.484h1.17v-2.787h.855l1.524 2.787H4.96l-1.756-2.917c.92-.205 1.505-.827 1.505-1.775 0-1.393-1.189-1.886-2.425-1.886H0v6.578zm1.17-3.744V9.89h1.06c.604 0 1.31.177 1.31.892 0 .799-.753.957-1.413.957h-.956zM5.898 12.177c0 2.053 1.496 3.474 3.522 3.474 2.053 0 3.548-1.421 3.548-3.474 0-2.11-1.495-3.438-3.548-3.438-2.026 0-3.522 1.329-3.522 3.438zm1.273 0c0-1.357.901-2.407 2.258-2.407 1.365 0 2.267 1.05 2.267 2.407 0 1.402-.92 2.424-2.267 2.424-1.338 0-2.258-1.022-2.258-2.425zM15.796 15.484h1.17v-2.852l2.471-3.726h-1.356l-1.672 2.769-1.654-2.769h-1.43l2.47 3.726v2.852zM19.005 15.484h1.31l.595-1.505h2.852l.613 1.505h1.338l-2.834-6.578h-1.012l-2.862 6.578zm2.304-2.509l1.032-2.675 1.012 2.675H21.31zM26.735 15.484h3.967v-1.04h-2.796V8.905h-1.17v6.578zM45.677 15.484h4.525v-1.04h-3.354v-1.859h1.47V11.6h-1.47V9.928h3.186V8.906h-4.357v6.578zM51.032 15.484h1.412l1.542-2.583 1.607 2.583h1.477L54.71 12l2.007-3.094H55.37l-1.337 2.248-1.357-2.248h-1.412l2.044 3.066-2.276 3.512zM63.61 9.742c-.521-.687-1.534-1.003-2.389-1.003-2.025 0-3.567 1.329-3.567 3.438 0 2.053 1.459 3.474 3.512 3.474 1.115 0 1.97-.427 2.545-1.152l-.938-.66c-.335.456-.892.762-1.598.762-1.356 0-2.23-.994-2.23-2.425 0-1.356.92-2.406 2.276-2.406.53 0 1.153.205 1.496.678l.892-.706zM64.81 15.484h1.17v-2.917h3.076v2.917h1.17V8.906h-1.17v2.657H65.98V8.906h-1.17v6.578zM71.25 15.484h1.31l.595-1.505h2.852l.614 1.505h1.337l-2.833-6.578h-1.013l-2.861 6.578zm2.305-2.509l1.031-2.675 1.013 2.675h-2.044zM78.98 15.484h1.171v-5.082h.019l3.122 5.082h1.486V8.906h-1.17v4.924h-.02l-3.056-4.924h-1.551v6.578zM92.362 11.73h-2.518v.967h1.384v1.672c-.38.158-.817.232-1.31.232-1.45 0-2.341-1.022-2.341-2.425 0-1.356.901-2.406 2.285-2.406.706 0 1.348.298 1.682.67l.808-.874c-.53-.493-1.458-.827-2.499-.827-2.025 0-3.567 1.329-3.567 3.438 0 2.053 1.477 3.474 3.595 3.474 1.031 0 1.82-.195 2.48-.51v-3.41zM94.159 15.484h4.524v-1.04h-3.354v-1.859H96.8V11.6h-1.47V9.928h3.186V8.906h-4.357v6.578z" fill="#fff"/>
</svg>
