<svg width="99" height="24" viewBox="0 0 99 24" fill="none" xmlns="http://www.w3.org/2000/svg">
<path d="M48.9602 0H27.7837V5.64706H29.1956V3.29408H47.5486V5.64706H48.9602V0Z" fill="#D7A900"/>
<path d="M27.7837 24L48.9602 24V18.3529H47.5486V20.7059L29.1956 20.7059L29.1956 18.3529H27.7837L27.7837 24Z" fill="#D7A900"/>
<path d="M0 15.4838H1.17058V12.6967H2.02529L3.5489 15.4838H4.96103L3.20516 12.5667C4.1249 12.3623 4.71019 11.7398 4.71019 10.7922C4.71019 9.39866 3.52103 8.90627 2.28542 8.90627H0V15.4838ZM1.17058 11.7398V9.89104H2.22968C2.83355 9.89104 3.53961 10.0676 3.53961 10.7829C3.53961 11.5819 2.7871 11.7398 2.12748 11.7398H1.17058Z" fill="#1A426D"/>
<path d="M5.89848 12.1765C5.89848 14.2296 7.39423 15.651 9.41952 15.651C11.4727 15.651 12.9684 14.2296 12.9684 12.1765C12.9684 10.0676 11.4727 8.73904 9.41952 8.73904C7.39423 8.73904 5.89848 10.0676 5.89848 12.1765ZM7.17126 12.1765C7.17126 10.8201 8.07242 9.77027 9.42881 9.77027C10.7945 9.77027 11.6956 10.8201 11.6956 12.1765C11.6956 13.5793 10.7759 14.6012 9.42881 14.6012C8.091 14.6012 7.17126 13.5793 7.17126 12.1765Z" fill="#1A426D"/>
<path d="M15.7956 15.4838H16.9662V12.6317L19.4374 8.90627H18.081L16.4087 11.6748L14.7551 8.90627H13.3244L15.7956 12.6317V15.4838Z" fill="#1A426D"/>
<path d="M19.0054 15.4838H20.3153L20.9099 13.9788H23.762L24.3752 15.4838H25.713L22.8795 8.90627H21.8668L19.0054 15.4838ZM21.3094 12.9754L22.3406 10.2998L23.3533 12.9754H21.3094Z" fill="#1A426D"/>
<path d="M26.7354 15.4838H30.7024V14.4433H27.906V8.90627H26.7354V15.4838Z" fill="#1A426D"/>
<path d="M45.6774 15.4838H50.2018V14.4433H46.8479V12.5852H48.3189V11.6005H46.8479V9.9282H50.0345V8.90627H45.6774V15.4838Z" fill="#1A426D"/>
<path d="M51.0319 15.4838H52.444L53.9862 12.9011L55.5934 15.4838H57.0706L54.7108 11.9999L56.7175 8.90627H55.3704L54.0326 11.1545L52.6762 8.90627H51.2641L53.308 11.9721L51.0319 15.4838Z" fill="#1A426D"/>
<path d="M63.6092 9.7424C63.089 9.05491 62.0763 8.73904 61.2216 8.73904C59.1963 8.73904 57.6541 10.0676 57.6541 12.1765C57.6541 14.2296 59.1127 15.651 61.1659 15.651C62.2807 15.651 63.1354 15.2237 63.7114 14.499L62.7731 13.8394C62.4386 14.2947 61.8812 14.6012 61.1751 14.6012C59.8188 14.6012 58.9455 13.6072 58.9455 12.1765C58.9455 10.8201 59.8652 9.77027 61.2216 9.77027C61.7511 9.77027 62.3736 9.97466 62.7173 10.4485L63.6092 9.7424Z" fill="#1A426D"/>
<path d="M64.8104 15.4838H65.9809V12.5667H69.056V15.4838H70.2266V8.90627H69.056V11.5633H65.9809V8.90627H64.8104V15.4838Z" fill="#1A426D"/>
<path d="M71.2509 15.4838H72.5609L73.1555 13.9788H76.0076L76.6207 15.4838H77.9585L75.125 8.90627H74.1124L71.2509 15.4838ZM73.5549 12.9754L74.5862 10.2998L75.5988 12.9754H73.5549Z" fill="#1A426D"/>
<path d="M78.981 15.4838H80.1516V10.402H80.1702L83.2917 15.4838H84.7782V8.90627H83.6076V13.8301H83.589L80.5325 8.90627H78.981V15.4838Z" fill="#1A426D"/>
<path d="M92.3616 11.7305H89.8439V12.6967H91.2282V14.369C90.8473 14.5269 90.4106 14.6012 89.9182 14.6012C88.469 14.6012 87.5771 13.5793 87.5771 12.1765C87.5771 10.8201 88.4782 9.77027 89.8625 9.77027C90.5686 9.77027 91.2096 10.0676 91.544 10.4392L92.3523 9.56588C91.8228 9.0735 90.8937 8.73904 89.8532 8.73904C87.8279 8.73904 86.2857 10.0676 86.2857 12.1765C86.2857 14.2296 87.7629 15.651 89.8811 15.651C90.9123 15.651 91.702 15.4559 92.3616 15.1401V11.7305Z" fill="#1A426D"/>
<path d="M94.1587 15.4838H98.6831V14.4433H95.3293V12.5852H96.8002V11.6005H95.3293V9.9282H98.5159V8.90627H94.1587V15.4838Z" fill="#1A426D"/>
</svg>
