<svg width="64" height="64" fill="none" xmlns="http://www.w3.org/2000/svg">
  <circle opacity=".15" cx="32" cy="32" r="32" fill="#6FCF97"/>
  <path d="M33.849 33.239C33.35 32.035 32.129 32 31.993 32c-.25 0-.489.05-.752.159a1.903 1.903 0 0 0-1.08 1.077 1.9 1.9 0 0 0-.002 1.525C30.657 35.965 31.878 36 32.015 36c.25 0 .489-.05.751-.159a1.994 1.994 0 0 0 1.083-2.602z" fill="#1A426D"/>
  <path d="M32 12c-11.028 0-20 8.972-20 20s8.972 20 20 20 20-8.972 20-20-8.972-20-20-20zM17.149 26.593c1.016-2.972 2.954-5.528 5.604-7.394C25.45 17.3 28.648 16.297 32 16.297c3.352 0 6.55 1.003 9.247 2.902 2.65 1.866 4.588 4.422 5.604 7.394l.354 1.034h-30.41l.354-1.034zM28.126 47.38a15.003 15.003 0 0 1-8.292-4.963 14.955 14.955 0 0 1-3.527-9.124l-.033-.97.955.175c5.206 2.546 11.781 7.185 11.84 14.111l.008.972-.95-.201zm5.216-10.046c-.44.182-.877.27-1.333.27-1.085 0-2.588-.569-3.25-2.174a3.445 3.445 0 0 1 .002-2.685 3.443 3.443 0 0 1 1.9-1.898c.442-.182.878-.27 1.334-.27 1.085 0 2.588.569 3.25 2.173a3.514 3.514 0 0 1-1.903 4.584zm10.824 5.083a15.003 15.003 0 0 1-8.292 4.963l-.951.201.008-.972c.059-6.925 6.2-11.566 11.84-14.111l.955-.176-.033.97a14.954 14.954 0 0 1-3.527 9.125z" fill="#1A426D"/>
  <circle cx="8.6" cy="52.6" r="2.6" fill="#D7A900"/>
  <circle cx="58.4" cy="13.6" r="2.6" fill="#D7A900"/>
</svg>
