<svg width="34" height="48" viewBox="0 0 34 48" fill="none" xmlns="http://www.w3.org/2000/svg">
<path d="M31.8558 23.4466C32.6457 23.8288 33.0942 24.6814 32.9616 25.5489L30.1409 44.0098C29.8615 45.8388 28.0092 46.9813 26.2494 46.4103L23.8541 45.633C21.7501 44.9503 20.3447 42.9662 20.3989 40.7548L20.9135 19.7212C20.9313 18.9942 21.6944 18.5287 22.3489 18.8455L31.8558 23.4466Z" fill="#1A426D"/>
<rect x="18.5004" y="2" width="28.8112" height="18.9059" rx="1" transform="rotate(78.1154 18.5004 2)" fill="#6FCF97"/>
<g filter="url(#filter0_d)">
<rect x="24.906" y="1" width="33.0854" height="18.9059" rx="1" transform="rotate(90 24.906 1)" fill="#D7A900"/>
</g>
<path fill-rule="evenodd" clip-rule="evenodd" d="M18.6088 24.9478C17.5765 23.3973 15.4828 22.9772 13.9323 24.0094C12.3818 25.0417 11.9617 27.1354 12.994 28.6859L17.6826 35.7286L18.413 39.9645C18.6046 41.0761 19.1666 42.0903 20.0075 42.8422L23.7704 46.2068C25.062 47.3616 26.9708 47.4975 28.4129 46.5374C28.4739 46.4968 28.5333 46.4548 28.5911 46.4114C28.6521 46.3761 28.7123 46.3386 28.7717 46.2991C30.3222 45.2668 30.7423 43.1731 29.7101 41.6226L18.6088 24.9478Z" fill="#1A426D"/>
<path fill-rule="evenodd" clip-rule="evenodd" d="M18.2951 15.5254C18.2951 15.8016 18.0713 16.0254 17.7951 16.0254H17.4509C17.2799 16.0254 17.1208 15.938 17.029 15.7937L15.5648 13.4915H14.3064V15.5254C14.3064 15.8016 14.0826 16.0254 13.8064 16.0254H13.6877C13.4115 16.0254 13.1877 15.8016 13.1877 15.5254V13.4915H12.6C12.4346 13.4915 12.3004 13.3574 12.3004 13.1919C12.3004 13.0264 12.4346 12.8923 12.6 12.8923H13.1877V11.6629H12.6C12.4346 11.6629 12.3004 11.5287 12.3004 11.3633C12.3004 11.1978 12.4346 11.0636 12.6 11.0636H13.1877V10.1651C13.1877 9.88896 13.4115 9.6651 13.6877 9.6651H14.0318C14.2028 9.6651 14.362 9.75255 14.4538 9.89693L15.1952 11.0636H17.1852V10.1651C17.1852 9.88896 17.409 9.6651 17.6852 9.6651H17.7951C18.0713 9.6651 18.2951 9.88896 18.2951 10.1651V11.0636H18.8848C19.0502 11.0636 19.1844 11.1978 19.1844 11.3633C19.1844 11.5287 19.0502 11.6629 18.8848 11.6629H18.2951V12.8923H18.8848C19.0502 12.8923 19.1844 13.0264 19.1844 13.1919C19.1844 13.3574 19.0502 13.4915 18.8848 13.4915H18.2951V15.5254ZM14.3064 12.8923H15.1837L14.4018 11.6629H14.3064V12.8923ZM16.7381 13.4915L17.1852 14.1951V13.4915H16.7381ZM17.1852 12.8923H16.3573L15.576 11.6629H17.1852V12.8923Z" fill="white"/>
<defs>
<filter id="filter0_d" x="4.00012" y="0" width="20.9059" height="35.0854" filterUnits="userSpaceOnUse" color-interpolation-filters="sRGB">
<feFlood flood-opacity="0" result="BackgroundImageFix"/>
<feColorMatrix in="SourceAlpha" type="matrix" values="0 0 0 0 0 0 0 0 0 0 0 0 0 0 0 0 0 0 127 0"/>
<feOffset dx="-1"/>
<feGaussianBlur stdDeviation="0.5"/>
<feColorMatrix type="matrix" values="0 0 0 0 0 0 0 0 0 0 0 0 0 0 0 0 0 0 0.11 0"/>
<feBlend mode="normal" in2="BackgroundImageFix" result="effect1_dropShadow"/>
<feBlend mode="normal" in="SourceGraphic" in2="effect1_dropShadow" result="shape"/>
</filter>
</defs>
</svg>
