<svg width="64" height="64" fill="none" xmlns="http://www.w3.org/2000/svg">
  <circle opacity=".15" cx="32" cy="32" r="32" fill="#6FCF97"/>
  <path d="M12 33.353s1.285 2.368 4.088 0l16.749-14.17L48.54 33.266c3.245 2.34 4.46 0 4.46 0L32.837 15 12 33.353z" fill="#1A426D"/>
  <path d="M17.575 47.41s-.037.916.859.916c1.113 0 10.335-.012 10.335-.012l.015-6.468s-.146-1.396 1.21-1.396h4.287c1.603 0 1.504 1.396 1.504 1.396l-.018 6.441h10.116c1.137 0 1.085-1.141 1.085-1.141V31.533L32.711 18.851 17.575 31.533V47.41z" fill="#1A426D"/>
  <circle cx="8.6" cy="52.6" r="2.6" fill="#D7A900"/>
  <circle cx="58.4" cy="13.6" r="2.6" fill="#D7A900"/>
</svg>
