<svg width="63" height="15" viewBox="0 0 63 15" fill="none" xmlns="http://www.w3.org/2000/svg">
<path d="M0 14.6129H2.38994V8.92254H4.13497L7.24568 14.6129H10.1288L6.54387 8.657C8.42168 8.23971 9.61664 6.96887 9.61664 5.03416C9.61664 2.18899 7.18877 1.1837 4.66606 1.1837H0V14.6129ZM2.38994 6.96887V3.19428H4.55226C5.78516 3.19428 7.22671 3.55467 7.22671 5.01519C7.22671 6.64641 5.69032 6.96887 4.34361 6.96887H2.38994Z" fill="white"/>
<path d="M12.0427 7.86035C12.0427 12.0522 15.0965 14.9543 19.2315 14.9543C23.4234 14.9543 26.4772 12.0522 26.4772 7.86035C26.4772 3.55467 23.4234 0.842285 19.2315 0.842285C15.0965 0.842285 12.0427 3.55467 12.0427 7.86035ZM14.6413 7.86035C14.6413 5.09106 16.4812 2.9477 19.2505 2.9477C22.0387 2.9477 23.8786 5.09106 23.8786 7.86035C23.8786 10.7245 22.0008 12.8109 19.2505 12.8109C16.5191 12.8109 14.6413 10.7245 14.6413 7.86035Z" fill="white"/>
<path d="M32.2493 14.6129H34.6392V8.78977L39.6847 1.1837H36.9154L33.5012 6.83609L30.1249 1.1837H27.2039L32.2493 8.78977V14.6129Z" fill="white"/>
<path d="M38.8027 14.6129H41.4771L42.691 11.5401H48.5141L49.766 14.6129H52.4974L46.7122 1.1837H44.6447L38.8027 14.6129ZM43.5067 9.49158L45.6121 4.02887L47.6796 9.49158H43.5067Z" fill="white"/>
<path d="M54.5849 14.6129H62.6841V12.4885H56.9748V1.1837H54.5849V14.6129Z" fill="white"/>
</svg>
