<svg width="64" height="64" fill="none" xmlns="http://www.w3.org/2000/svg">
  <circle opacity=".15" cx="32" cy="32" r="32" fill="#6FCF97"/>
  <path d="M49.901 16.875C42.486 16.875 36.804 14.729 32 10c-4.804 4.73-10.485 6.875-17.9 6.875 0 12.316-2.518 29.96 17.9 37.125 20.42-7.165 17.902-24.809 17.902-37.125zM31.229 37.832a1 1 0 0 1-1.421-.002l-3.936-3.985a1.9 1.9 0 1 1 2.703-2.67l1.942 1.967 4.914-4.975a1.914 1.914 0 1 1 2.72 2.693l-6.922 6.972z" fill="#1A426D"/>
  <circle cx="8.6" cy="52.6" r="2.6" fill="#D7A900"/>
  <circle cx="58.4" cy="13.6" r="2.6" fill="#D7A900"/>
</svg>
